<?xml version="1.0" encoding="utf-8"?>
<!-- Generator: Adobe Illustrator 25.2.0, SVG Export Plug-In . SVG Version: 6.00 Build 0)  -->
<svg version="1.1" id="Layer_1" xmlns="http://www.w3.org/2000/svg" xmlns:xlink="http://www.w3.org/1999/xlink" x="0px" y="0px"
	 width="300px" height="300px" viewBox="0 0 300 300" style="enable-background:new 0 0 300 300;" xml:space="preserve">
<path d="M186,158.3c-0.9-0.6-2-1.3-3.1-2.1c-4.2-2.8-6.1-4.1-7.1-4.1c-0.1,0-0.1,0-0.2,0c-0.2-0.1-0.5-0.1-0.7-0.1
	c-6.1,0.1-12.3,0.2-18.4,0.4c2.2-3.4,12.3-19.3,22.1-34.7c20-31.7,19.9-31.8,19.6-32.6l-0.3-0.5l-0.3,0c-0.4-0.3-1.1-0.9-1.9-1.6
	c-6.8-5.8-7.7-6.3-8.5-6.3l-0.1,0c-0.2,0-0.3-0.1-0.5-0.1c-6.9,0.2-13.9,0.4-20.8,0.5c-0.7,0-1.5,0-2.2,0c-0.4,0-0.7,0-1.1,0
	l0.1-0.2c1.8-2.8,7.2-11.3,12.3-19.3c10.1-16,10.1-16.1,9.3-16.8c-9.1-8.8-9.6-8.8-9.8-8.8c-8.4,0-19.4,0.2-29,0.5
	c-0.1,0-0.1,0-0.2,0c-8.2,0.1-16.3,0.2-24.5,0.3c-1,0-1.4,0.3-1.7,1.2c-1.5,4.4-3.1,8.8-4.7,13.2c-7.8,21.7-15.7,43.4-23.5,65.2
	c-0.2,0.5-0.3,1.1-0.4,1.6l-0.2,0.3l1.3,2.8c4.8,10,4.8,10,5.4,10.1l0.5,0.1l0.1-0.1c5.1,0,8.5,0,11.8,0c2.7,0,5.4,0,9.1,0
	c-5,11.5-10,23-15,34.5c-2.6,6.1-5.3,12.2-7.9,18.3c-0.3,0.7-0.4,1.1-0.3,1.4c0,0.2,0,0.5,0.1,0.7c0.7,1.6,2.7,4.9,3.5,6.3
	c2.8,4.7,2.8,4.7,3.5,4.7c0,0,0,0,0,0c2.4-0.1,6.4-0.1,11.4-0.1l2.5,0c-5,15.8-10,31.5-15,47.3c-1.7,4.6-3.4,9.5-5.1,14.8l-2.5,7.8
	c-2,6.1-3.9,12.3-5.9,18.4c0,0.1-0.1,0.2-0.1,0.4c-0.3,0.8-0.9,2.7,0.9,3.6c0.2,0.1,0.3,0.2,0.5,0.2c0.5,0,1.2-0.8,4-4.2
	c2.2-2.6,5.1-6.2,8.5-10.3c4.9-6,15-18.4,27.3-33.9c18.9-23.8,44.1-56.1,56.4-74.9l0.1-0.2c1-1.4,1.5-2.4,1.1-3.1
	C186.5,158.5,186.3,158.4,186,158.3z M196,85.9c-3.6,6.5-37.3,59.4-41.3,65.7c-0.2,0.3-0.3,0.5-0.5,0.9c-4.3,0.1-8.7,0.2-13,0.3
	c-0.5,0-1,0-1.8,0c0.4-0.6,0.6-1,0.9-1.4c3.3-5.1,6.6-10.2,9.9-15.4c12.3-19,24.7-38.1,37-57.1c1.1,0.6,5.4,4.2,7.3,5.8
	C195.1,85.2,195.6,85.6,196,85.9z M161,75.9l-0.5,0.8c-0.1,0.2-0.2,0.4-0.4,0.6c-1,0-2.1,0.1-3.1,0.1c-2.9,0.1-5.8,0-8.8,0
	c0.2-0.4,0.4-0.6,0.5-0.9c12.6-20.8,21-34.5,25.2-41.4c0.2-0.3,0.3-0.5,0.5-0.8c1.7,1.6,6.4,6,8,7.5C181.4,43.5,177.5,50,161,75.9z
	 M109.4,125.1c-3.3,0-6.5,0-11.6,0c-0.7-1.4-2.9-5.9-4.4-9l-0.9-1.8c10.5,0,20.9,0,31.3,0c-0.2,0.4-0.3,0.9-0.4,1.2
	c-1.4,3.2-2.7,6.3-4.1,9.5C115.3,125.1,112.4,125.1,109.4,125.1z M113.9,190.9c-4.7,0-8.5,0-11,0.1c-1-1.5-4.3-7-5.4-9.4
	c6.8-0.2,13.6-0.4,20.4-0.6c0.7,0,1.4,0,2.2,0c-0.2,0.6-0.3,1.1-0.4,1.5c-0.9,2.8-1.8,5.6-2.7,8.4L113.9,190.9z M183.9,160.8
	l-0.2,0.2c-17.7,26.9-62.8,83.1-84,109c2.2-3,4.3-6,6.3-9.1c23.4-35.5,46.7-71.1,70.1-106.7c1.1,0.5,3.8,2.3,5.6,3.6
	c1,0.7,1.9,1.3,2.8,1.9C184.4,160,184.2,160.4,183.9,160.8z"/>
</svg>
